<?xml version="1.0" standalone="no"?>
<!DOCTYPE svg PUBLIC "-//W3C//DTD SVG 20010904//EN"
 "http://www.w3.org/TR/2001/REC-SVG-20010904/DTD/svg10.dtd">
<svg version="1.0" xmlns="http://www.w3.org/2000/svg"
 width="157.000000pt" height="157.000000pt" viewBox="0 0 157.000000 157.000000"
 preserveAspectRatio="xMidYMid meet">
<metadata>
Created by potrace 1.11, written by Peter Selinger 2001-2013
</metadata>
<g transform="translate(0.000000,157.000000) scale(0.100000,-0.100000)"
fill="#000000" stroke="none">
<path d="M665 1447 c-103 -49 -156 -143 -168 -297 -3 -33 -15 -74 -31 -104
-43 -81 -33 -129 49 -232 27 -33 30 -46 34 -117 9 -205 -58 -386 -161 -434
-109 -52 -194 -25 -238 75 -16 35 -23 43 -32 34 -15 -15 -11 -76 7 -112 46
-88 130 -140 230 -140 148 0 273 123 365 360 35 92 52 122 60 114 5 -5 25 -56
45 -114 44 -126 73 -178 137 -246 84 -89 215 -132 333 -110 70 13 147 106 158
190 11 79 -13 88 -44 16 -37 -87 -110 -115 -200 -77 -91 38 -163 168 -184 332
-3 28 -8 66 -11 85 -9 64 6 109 51 161 46 50 67 102 59 144 -2 13 -15 45 -28
72 -13 26 -27 73 -31 103 -19 141 -71 239 -152 287 -67 39 -178 44 -248 10z
m-75 -447 c24 -24 25 -47 3 -72 -21 -23 -55 -23 -77 1 -23 26 -17 63 14 78 33
17 37 16 60 -7z m450 0 c24 -24 25 -47 3 -72 -21 -24 -55 -23 -78 2 -22 25
-13 67 18 80 32 13 35 12 57 -10z"/>
<path d="M190 792 c-63 -28 -91 -85 -83 -166 13 -116 70 -181 185 -212 85 -22
133 -19 153 12 28 43 45 105 51 184 l6 75 -22 -35 c-52 -83 -99 -113 -172
-111 -105 2 -167 76 -132 159 11 28 18 32 49 32 25 0 44 -8 61 -25 30 -30 44
-32 44 -6 0 25 -35 68 -70 86 -31 16 -46 18 -70 7z"/>
<path d="M1301 782 c-43 -21 -76 -65 -67 -87 6 -15 9 -14 30 8 42 46 108 48
122 4 20 -63 -2 -120 -58 -148 -81 -41 -179 -10 -231 73 -16 26 -32 48 -35 48
-10 0 8 -146 23 -191 9 -25 25 -56 37 -69 19 -20 28 -22 83 -17 82 6 164 44
200 91 73 96 62 257 -20 294 -34 16 -44 15 -84 -6z"/>
</g>
</svg>
